<svg width="19" height="17" viewBox="0 0 19 17" fill="none" xmlns="http://www.w3.org/2000/svg">
<path d="M17.3427 1.96644H15.0627V0.637423C15.0627 0.285239 14.7769 0 14.4241 0C14.0712 0 13.7854 0.285239 13.7854 0.637423V1.96644H5.21457V0.637423C5.21457 0.285239 4.92878 0 4.57592 0C4.22305 0 3.93726 0.285239 3.93726 0.637423V1.96644H1.65732C0.742434 1.96804 0.00159408 2.70745 0 3.62056V15.3459C0.00159674 16.259 0.742434 16.9984 1.65732 17H17.3427C18.2576 16.9984 18.9984 16.259 19 15.3459V3.62056C18.9984 2.70745 18.2576 1.96804 17.3427 1.96644ZM17.7227 6.74722H1.27727V3.62069C1.27727 3.52029 1.31718 3.42388 1.38824 3.35217C1.46008 3.28126 1.55668 3.24142 1.65727 3.24142H3.93722V4.57044C3.93722 4.92263 4.22301 5.20786 4.57587 5.20786C4.92874 5.20786 5.21453 4.92263 5.21453 4.57044V3.24142H13.7854V4.57044C13.7854 4.92263 14.0712 5.20786 14.424 5.20786C14.7769 5.20786 15.0627 4.92263 15.0627 4.57044V3.24142H17.3426C17.5526 3.24142 17.7226 3.41113 17.7226 3.62069L17.7227 6.74722Z" fill="#B1B3B6"/>
</svg>
